<svg xmlns="http://www.w3.org/2000/svg" width="300" height="120" viewBox="0 0 600 400" version="1.1">
<path d="M 188.775 110.078 L 177.249 130.193 188.587 149.846 L 199.924 169.500 223.212 169.757 L 246.500 170.015 257.853 150.036 L 269.207 130.057 257.853 110.278 L 246.500 90.500 223.400 90.232 L 200.301 89.964 188.775 110.078 M 202.257 95.250 C 201.713 95.938, 196.902 104.058, 191.565 113.295 L 181.862 130.091 192.181 148.012 L 202.500 165.934 223.106 165.967 L 243.712 166 253.919 148.445 C 259.533 138.790, 263.985 130.308, 263.813 129.596 C 263.641 128.884, 259.012 120.584, 253.527 111.151 L 243.554 94 223.399 94 C 208.470 94, 202.989 94.324, 202.257 95.250 M 266.554 155.035 L 254.891 175.069 266.570 195.035 L 278.249 215 301.086 215 L 323.924 215 330.826 203.250 C 334.623 196.787, 339.830 187.777, 342.398 183.226 L 347.067 174.951 340.904 164.226 C 337.514 158.327, 332.297 149.338, 329.312 144.250 L 323.883 135 301.050 135 L 278.217 135 266.554 155.035 M 270.055 157 L 259.716 175 270.055 193 L 280.394 211 300.947 210.991 L 321.500 210.981 325.063 204.741 C 327.023 201.308, 331.686 193.228, 335.426 186.784 L 342.225 175.068 333.435 159.784 C 328.600 151.378, 323.794 143.262, 322.754 141.750 L 320.864 139 300.629 139 L 280.394 139 270.055 157 M 188.835 197.713 C 182.601 208.555, 177.604 217.756, 177.732 218.159 C 177.860 218.563, 183.013 227.700, 189.183 238.464 L 200.401 258.036 223.450 257.768 L 246.500 257.500 257.833 237.686 L 269.166 217.872 257.833 197.942 L 246.500 178.013 223.335 178.007 L 200.171 178 188.835 197.713 M 200.930 184.756 C 200.067 186.265, 195.417 194.331, 190.596 202.679 L 181.832 217.858 192.229 235.679 L 202.625 253.500 222.673 253.770 C 237.942 253.976, 242.973 253.737, 243.777 252.769 C 245.628 250.538, 264 218.827, 264 217.862 C 264 217.352, 259.453 209.074, 253.897 199.467 L 243.793 182 223.147 182.006 L 202.500 182.013 200.930 184.756 M 346.459 273.880 C 341.409 276.173, 337.282 280.983, 336.420 285.576 C 335.290 291.600, 336.433 299.395, 338.970 302.958 C 345.622 312.300, 362.367 312.168, 369.375 302.718 C 372.519 298.478, 372.895 287.481, 370.094 281.694 C 366.081 273.405, 355.329 269.851, 346.459 273.880 M 151 276 C 151 278.970, 151.056 279, 156.500 279 L 162 279 162 294 L 162 309 165.973 309 L 169.947 309 170.223 294.250 L 170.500 279.500 176 279 C 181.200 278.527, 181.502 278.350, 181.539 275.750 L 181.579 273 166.289 273 L 151 273 151 276 M 187.998 291.250 L 187.996 309.500 201.059 309.194 L 214.122 308.887 213.811 306.194 C 213.501 303.509, 213.468 303.499, 204.250 303.212 L 195 302.925 195 298.462 L 195 294 203 294 L 211 294 211 290.500 L 211 287 202.940 287 L 194.879 287 195.190 283.250 L 195.500 279.500 204.250 279.211 L 213 278.922 213 275.961 L 213 273 200.500 273 L 188 273 187.998 291.250 M 223.832 281.750 L 229.715 290.500 225.298 297 C 222.868 300.575, 220.221 304.738, 219.415 306.250 L 217.949 309 222.224 308.970 C 226.390 308.941, 226.588 308.787, 229.919 302.970 C 231.799 299.687, 233.679 297, 234.097 297 C 234.514 297, 236.495 299.700, 238.500 303 C 242.078 308.889, 242.227 309, 246.598 309 L 251.051 309 249.605 306.250 C 248.809 304.738, 246.136 300.613, 243.665 297.084 L 239.171 290.669 245.150 281.777 L 251.129 272.885 246.352 273.193 C 241.749 273.489, 241.463 273.692, 238.537 278.732 C 236.867 281.610, 235.190 283.973, 234.812 283.982 C 234.433 283.992, 232.633 281.538, 230.812 278.528 C 227.548 273.136, 227.430 273.056, 222.724 273.028 L 217.948 273 223.832 281.750 M 254 275.950 C 254 278.840, 254.117 278.906, 259.750 279.200 L 265.500 279.500 266 294.500 L 266.500 309.500 269.500 309.500 L 272.500 309.500 273 294.500 L 273.500 279.500 279.250 279.200 C 284.883 278.906, 285 278.840, 285 275.950 L 285 273 269.500 273 L 254 273 254 275.950 M 301 276 C 301 278.970, 301.056 279, 306.500 279 L 312 279 312 293.891 L 312 308.781 315.531 309.193 C 317.472 309.420, 319.272 309.394, 319.531 309.136 C 319.789 308.878, 320 301.992, 320 293.833 L 320 279 325.500 279 C 330.944 279, 331 278.970, 331 276 L 331 273 316 273 L 301 273 301 276 M 348.750 280.080 C 345.907 281.736, 344 286.542, 344 292.050 C 344 296.573, 344.414 297.614, 347.400 300.600 C 350.998 304.198, 352.882 304.634, 357.652 302.971 C 361.848 301.509, 364 297.287, 364 290.519 C 364 285.582, 363.621 284.467, 361.077 281.923 C 358.846 279.692, 357.248 279.007, 354.327 279.030 C 352.222 279.047, 349.712 279.519, 348.750 280.080 M 300.330 320.807 C 289.724 325.117, 284.489 336.372, 286.934 349.602 C 289.714 364.641, 302.123 371.468, 320.408 368.017 L 327 366.774 327 354.887 L 327 343 322 343 L 317 343 317 351.500 L 317 360 311.950 360 C 309.173 360, 305.581 359.317, 303.967 358.483 C 296.057 354.393, 294.839 338.007, 301.919 330.928 C 305.529 327.317, 311.773 326.366, 318.453 328.411 C 321.178 329.245, 323.449 329.831, 323.501 329.713 C 325.329 325.573, 326 323.655, 326 322.572 C 326 319.126, 307.581 317.860, 300.330 320.807 M 151 344 L 151 368 156 368 L 161 368 161 344 L 161 320 156 320 L 151 320 151 344 M 175.640 323.250 C 175.319 325.038, 174.599 332.575, 174.040 340 C 173.481 347.425, 172.774 356.762, 172.470 360.750 L 171.917 368 176.854 368 L 181.792 368 182.462 353.250 C 183.151 338.077, 183.540 335.207, 184.743 336.410 C 185.126 336.793, 187.736 342.595, 190.542 349.303 C 195.620 361.443, 195.661 361.501, 199.190 361.803 L 202.736 362.105 206.815 352.803 C 209.059 347.686, 211.683 341.700, 212.646 339.500 L 214.398 335.500 215.111 340.500 C 215.504 343.250, 215.864 349.851, 215.912 355.168 C 216.026 367.651, 216.180 368, 221.607 368 L 226 368 225.977 362.750 C 225.954 357.300, 224.536 337.126, 223.413 326.250 L 222.767 320 217.814 320 L 212.861 320 207.606 331.250 C 204.716 337.438, 201.738 344.033, 200.989 345.907 L 199.627 349.314 198.338 346.407 C 197.629 344.808, 194.594 338.212, 191.594 331.750 L 186.139 320 181.181 320 C 176.373 320, 176.205 320.099, 175.640 323.250 M 246.608 330.849 C 241.998 341.770, 233.044 365.783, 233.015 367.302 C 233.007 367.744, 235.326 367.969, 238.168 367.802 L 243.337 367.500 245.005 362.500 L 246.673 357.500 256.574 357.500 L 266.476 357.500 268.363 362.750 L 270.251 368 275.732 368 C 280.484 368, 281.127 367.773, 280.561 366.297 C 280.201 365.361, 277.658 358.594, 274.910 351.259 C 272.161 343.925, 268.222 334.004, 266.156 329.212 L 262.399 320.500 256.813 320.203 L 251.227 319.907 246.608 330.849 M 338 344 L 338 368 355 368 L 372 368 372 364 L 372 360 360.519 360 C 347.574 360, 347.482 359.936, 348.180 351.405 L 348.500 347.500 358.250 347.214 L 368 346.928 368 342.964 L 368 339 359.122 339 C 348.944 339, 347.698 338.239, 348.185 332.320 L 348.500 328.500 359.750 328.217 L 371 327.934 371 323.967 L 371 320 354.500 320 L 338 320 338 344 M 253.133 338.602 C 251.410 343.333, 250 347.608, 250 348.102 C 250 348.596, 253.198 349, 257.107 349 C 262.387 349, 264.088 348.679, 263.725 347.750 C 263.456 347.063, 261.800 342.788, 260.045 338.250 C 258.290 333.712, 256.722 330, 256.561 330 C 256.399 330, 254.857 333.871, 253.133 338.602 M 247.180 384.664 C 244.545 389.587, 238.936 404.299, 239.300 405.330 C 239.528 405.974, 240.430 404.813, 241.306 402.750 C 242.869 399.067, 242.996 399, 248.371 399 C 253.740 399, 253.867 399.067, 255 402.500 C 256.032 405.626, 258 407.361, 258 405.145 C 258 404.239, 249.249 383.916, 248.564 383.231 C 248.343 383.010, 247.720 383.655, 247.180 384.664 M 284 395.059 C 284 402.177, 284.356 405.898, 285 405.500 C 285.563 405.152, 286 400.323, 286 394.441 C 286 388.147, 285.603 384, 285 384 C 284.394 384, 284 388.353, 284 395.059 M 246.755 390.551 C 245.929 392.173, 244.941 394.512, 244.559 395.750 C 243.919 397.825, 244.178 398, 247.874 398 C 250.078 398, 252.089 397.663, 252.342 397.250 C 252.595 396.837, 251.779 394.498, 250.529 392.051 L 248.257 387.603 246.755 390.551" stroke="none" fill="#f9f9f9" fill-rule="evenodd" />
</svg>